<mxfile host="app.diagrams.net" modified="2023-12-06T06:16:36.811Z" agent="Mozilla/5.0 (Macintosh; Intel Mac OS X 10_15_5) AppleWebKit/605.1.15 (KHTML, like Gecko) Version/13.1.1 Safari/605.1.15" version="21.6.2" etag="p-BrzOygUcWDO9sDBNdm" type="github">
  <diagram name="第 1 页" id="kxO301Pb_dpQz-EEhZvu">
    <mxGraphModel>
      <root>
        <mxCell id="0" />
        <mxCell id="1" parent="0" />
      </root>
    </mxGraphModel>
  </diagram>
</mxfile>
